<svg t="1572510191784" class="icon" viewBox="0 0 1024 1024" version="1.1" xmlns="http://www.w3.org/2000/svg" p-id="4297" xmlns:xlink="http://www.w3.org/1999/xlink" width="200" height="200"><defs><style type="text/css"></style></defs><path d="M855.893333 768c-3.541333-7.125333-6.4-19.754667-8.618666-37.973333-28.672 29.866667-62.933333 44.8-102.741334 44.8-35.541333 0-64.725333-10.026667-87.466666-30.122667-22.741333-20.096-34.133333-45.610667-34.133334-76.544 0-37.546667 14.293333-66.688 42.837334-87.466667 28.544-20.778667 68.693333-31.146667 120.448-31.146666h59.946666v-27.306667c0-20.821333-6.4-37.418667-19.285333-49.749333-12.885333-12.373333-31.872-18.517333-56.96-18.517334-22.058667 0-40.533333 5.162667-55.381333 15.530667-14.848 10.325333-22.272 22.869333-22.272 37.589333H630.186667c0-18.218667 6.4-35.754667 19.2-52.693333 12.8-16.938667 30.122667-30.293333 52.010666-40.234667a173.141333 173.141333 0 0 1 72.149334-14.805333c41.6 0 74.154667 10.410667 97.706666 31.232 23.552 20.864 35.754667 49.578667 36.693334 86.186667v166.613333c0 33.237333 4.181333 59.648 12.586666 79.274667V768H855.893333z m-102.4-47.786667c19.328 0 37.674667-4.522667 54.997334-13.610666 17.322667-9.045333 29.866667-20.821333 37.589333-35.370667V604.16h-48.298667c-75.52 0-113.28 20.053333-113.28 60.16 0 17.493333 6.4 31.146667 19.285334 41.045333 12.885333 9.898667 29.44 14.848 49.706666 14.848z m-520.533333-135.082666h173.696L320 353.706667l-87.04 231.466666zM283.434667 256h73.130666l201.130667 512h-82.261333l-41.344-109.696H205.525333L164.565333 768H82.346667L283.434667 256z" p-id="4298"></path></svg>
