<?xml version="1.0" standalone="no"?><!DOCTYPE svg PUBLIC "-//W3C//DTD SVG 1.1//EN" "http://www.w3.org/Graphics/SVG/1.1/DTD/svg11.dtd"><svg t="1572510253842" class="icon" viewBox="0 0 1024 1024" version="1.1" xmlns="http://www.w3.org/2000/svg" p-id="5114" xmlns:xlink="http://www.w3.org/1999/xlink" width="200" height="200"><defs><style type="text/css"></style></defs><path d="M64 128h896v64H64V128z m832 128h-64v512h64V256z m-174.592 280.768a150.592 150.592 0 0 0-23.04-50.304 111.744 111.744 0 0 0-38.976-33.92 117.248 117.248 0 0 0-55.424-12.352c-12.672 0-24.32 1.536-35.008 4.672a112.64 112.64 0 0 0-28.992 13.12 110.336 110.336 0 0 0-23.36 20.352l-11.456 16.512V292.992H448V768h57.152v-36.8l8.064 11.2c5.568 6.528 12.096 12.16 19.456 17.216 7.488 4.992 15.936 8.96 25.472 11.904 9.536 2.944 20.096 4.352 31.872 4.352 22.592 0 42.624-4.544 59.968-13.568 17.408-9.152 31.936-21.632 43.648-37.504 11.712-16 20.544-34.752 26.496-56.256 5.952-21.632 8.96-44.992 8.96-70.208a240.384 240.384 0 0 0-7.68-61.568zM626.752 497.92c9.664 4.544 18.048 11.264 24.96 20.096 6.976 8.96 12.416 20.032 16.32 33.088 3.264 11.136 5.248 23.744 5.696 37.568l-0.448 8c0 20.928-2.112 39.68-6.4 55.616a120.704 120.704 0 0 1-17.792 39.296c-7.488 10.368-16.64 18.24-26.944 23.424-20.608 10.368-48.64 10.624-68.416 0.96a80.896 80.896 0 0 1-25.152-18.944 81.472 81.472 0 0 1-13.952-23.488s-11.456-28.608-11.456-60.608c0-32 11.456-64.128 11.456-64.128 3.968-11.328 8.704-20.352 14.336-27.52 7.296-9.152 16.384-16.576 27.136-22.08 10.752-5.504 23.36-8.256 37.568-8.256 12.16 0 23.296 2.368 33.088 6.976zM960 832H64v64h896v-64zM180.032 640l-46.592 129.984H64l1.6-4.608 156.224-453.504h60.224l159.04 458.112H371.84L322.048 640H180.032z m71.744-228.992h-1.408l-57.92 176.192h117.824l-58.496-176.192z" fill="#424242" p-id="5115"></path></svg>